<?xml version="1.0" standalone="no"?>
<svg xmlns:xlink="http://www.w3.org/1999/xlink" id="wave" style="transform:rotate(180deg); transition: 0.3s" viewBox="0 0 1440 280" version="1.1" xmlns="http://www.w3.org/2000/svg"><defs><linearGradient id="sw-gradient-0" x1="0" x2="0" y1="1" y2="0"><stop stop-color="rgba(20, 33, 61, 1)" offset="0%"/><stop stop-color="rgba(20, 33, 61, 1)" offset="100%"/></linearGradient></defs><path style="transform:translate(0, 0px); opacity:1" fill="url(#sw-gradient-0)" d="M0,196L720,84L1440,224L2160,196L2880,196L3600,28L4320,196L5040,196L5760,252L6480,28L7200,252L7920,0L8640,252L9360,168L10080,196L10800,0L11520,224L12240,56L12960,28L13680,56L14400,0L15120,56L15840,168L16560,252L17280,28L17280,280L16560,280L15840,280L15120,280L14400,280L13680,280L12960,280L12240,280L11520,280L10800,280L10080,280L9360,280L8640,280L7920,280L7200,280L6480,280L5760,280L5040,280L4320,280L3600,280L2880,280L2160,280L1440,280L720,280L0,280Z"/></svg>